<mxfile host="app.diagrams.net" modified="2020-12-06T23:02:30.912Z" agent="5.0 (Windows NT 10.0; Win64; x64) AppleWebKit/537.36 (KHTML, like Gecko) Chrome/84.0.4147.89 Safari/537.36" etag="e9juFCmIkIB4PIYRWNiK" version="13.10.9" type="github" pages="2">
  <diagram id="oncCJgsCwIcSJIyxF8jc" name="Page-1">
    <mxGraphModel dx="1006" dy="685" grid="1" gridSize="10" guides="1" tooltips="1" connect="1" arrows="1" fold="1" page="1" pageScale="1" pageWidth="850" pageHeight="1100" math="0" shadow="0">
      <root>
        <mxCell id="0" />
        <mxCell id="1" parent="0" />
        <mxCell id="WWoUFIhhI0EZQM7on6L7-21" value="" style="rounded=1;whiteSpace=wrap;html=1;" parent="1" vertex="1">
          <mxGeometry x="170" y="60" width="100" height="340" as="geometry" />
        </mxCell>
        <mxCell id="xC_BlbKAYVVZyULdwdPn-2" value="&lt;font style=&quot;font-size: 14px;&quot;&gt;Gridded GDP Datasets&lt;/font&gt;" style="ellipse;whiteSpace=wrap;html=1;fontSize=14;" parent="1" vertex="1">
          <mxGeometry x="20" y="200" width="110" height="110" as="geometry" />
        </mxCell>
        <mxCell id="WWoUFIhhI0EZQM7on6L7-1" value="" style="endArrow=classic;html=1;fontSize=14;exitX=0.998;exitY=0.429;exitDx=0;exitDy=0;exitPerimeter=0;entryX=0.012;entryY=0.585;entryDx=0;entryDy=0;entryPerimeter=0;" parent="1" source="WWoUFIhhI0EZQM7on6L7-21" target="WWoUFIhhI0EZQM7on6L7-5" edge="1">
          <mxGeometry width="50" height="50" relative="1" as="geometry">
            <mxPoint x="280" y="130" as="sourcePoint" />
            <mxPoint x="340" y="90" as="targetPoint" />
          </mxGeometry>
        </mxCell>
        <mxCell id="WWoUFIhhI0EZQM7on6L7-3" value="" style="ellipse;whiteSpace=wrap;html=1;fontSize=14;" parent="1" vertex="1">
          <mxGeometry x="670" y="20" width="120" height="480" as="geometry" />
        </mxCell>
        <mxCell id="WWoUFIhhI0EZQM7on6L7-5" value="Input United States County level shapefile&amp;nbsp;" style="rounded=1;whiteSpace=wrap;html=1;fontSize=14;" parent="1" vertex="1">
          <mxGeometry x="432.5" y="20" width="187.5" height="70" as="geometry" />
        </mxCell>
        <mxCell id="WWoUFIhhI0EZQM7on6L7-7" value="Do an accuracy assessment analysis to see how accurately do the dataset predict the GDP values for counties" style="rounded=0;whiteSpace=wrap;html=1;fontSize=14;" parent="1" vertex="1">
          <mxGeometry x="430" y="450" width="190" height="90" as="geometry" />
        </mxCell>
        <mxCell id="WWoUFIhhI0EZQM7on6L7-9" value="Geiger 5 min" style="ellipse;whiteSpace=wrap;html=1;aspect=fixed;fontSize=14;" parent="1" vertex="1">
          <mxGeometry x="180" y="300" width="80" height="80" as="geometry" />
        </mxCell>
        <mxCell id="WWoUFIhhI0EZQM7on6L7-10" value="Kummu 5 min res" style="ellipse;whiteSpace=wrap;html=1;aspect=fixed;fontSize=14;" parent="1" vertex="1">
          <mxGeometry x="180" y="200" width="80" height="80" as="geometry" />
        </mxCell>
        <mxCell id="WWoUFIhhI0EZQM7on6L7-11" value="&lt;font style=&quot;font-size: 14px;&quot;&gt;Kummu 30 sec res&lt;/font&gt;" style="ellipse;whiteSpace=wrap;html=1;aspect=fixed;fontSize=14;" parent="1" vertex="1">
          <mxGeometry x="180" y="90" width="80" height="80" as="geometry" />
        </mxCell>
        <mxCell id="WWoUFIhhI0EZQM7on6L7-12" value="Overlay with the datasets" style="rounded=0;whiteSpace=wrap;html=1;fontSize=14;" parent="1" vertex="1">
          <mxGeometry x="430" y="130" width="187.5" height="70" as="geometry" />
        </mxCell>
        <mxCell id="WWoUFIhhI0EZQM7on6L7-13" value="Compare the extracted data with reported US BEA county level GDP data" style="rounded=1;whiteSpace=wrap;html=1;fontSize=14;" parent="1" vertex="1">
          <mxGeometry x="430" y="350" width="187.5" height="70" as="geometry" />
        </mxCell>
        <mxCell id="WWoUFIhhI0EZQM7on6L7-14" value="Extract values of GDP from the datasets using the county level shapefile" style="rounded=0;whiteSpace=wrap;html=1;fontSize=14;" parent="1" vertex="1">
          <mxGeometry x="431.25" y="240" width="187.5" height="70" as="geometry" />
        </mxCell>
        <mxCell id="WWoUFIhhI0EZQM7on6L7-18" value="" style="endArrow=classic;html=1;fontSize=14;exitX=0.936;exitY=0.84;exitDx=0;exitDy=0;exitPerimeter=0;" parent="1" source="xC_BlbKAYVVZyULdwdPn-2" target="WWoUFIhhI0EZQM7on6L7-9" edge="1">
          <mxGeometry width="50" height="50" relative="1" as="geometry">
            <mxPoint x="110" y="330" as="sourcePoint" />
            <mxPoint x="160" y="280" as="targetPoint" />
          </mxGeometry>
        </mxCell>
        <mxCell id="WWoUFIhhI0EZQM7on6L7-19" value="" style="endArrow=classic;html=1;fontSize=14;exitX=1;exitY=0.5;exitDx=0;exitDy=0;entryX=-0.028;entryY=0.609;entryDx=0;entryDy=0;entryPerimeter=0;" parent="1" source="xC_BlbKAYVVZyULdwdPn-2" target="WWoUFIhhI0EZQM7on6L7-10" edge="1">
          <mxGeometry width="50" height="50" relative="1" as="geometry">
            <mxPoint x="132.95999999999992" y="302.4" as="sourcePoint" />
            <mxPoint x="194.1209883515652" y="332.31677283041427" as="targetPoint" />
          </mxGeometry>
        </mxCell>
        <mxCell id="WWoUFIhhI0EZQM7on6L7-20" value="" style="endArrow=classic;html=1;fontSize=14;exitX=0.832;exitY=0.046;exitDx=0;exitDy=0;exitPerimeter=0;entryX=0.012;entryY=0.708;entryDx=0;entryDy=0;entryPerimeter=0;" parent="1" source="xC_BlbKAYVVZyULdwdPn-2" target="WWoUFIhhI0EZQM7on6L7-11" edge="1">
          <mxGeometry width="50" height="50" relative="1" as="geometry">
            <mxPoint x="132.95999999999992" y="302.4" as="sourcePoint" />
            <mxPoint x="194.1209883515652" y="332.31677283041427" as="targetPoint" />
          </mxGeometry>
        </mxCell>
        <mxCell id="WWoUFIhhI0EZQM7on6L7-22" value="" style="endArrow=classic;html=1;fontSize=14;exitX=0.433;exitY=0.982;exitDx=0;exitDy=0;exitPerimeter=0;entryX=0.452;entryY=-0.01;entryDx=0;entryDy=0;entryPerimeter=0;" parent="1" source="WWoUFIhhI0EZQM7on6L7-5" target="WWoUFIhhI0EZQM7on6L7-12" edge="1">
          <mxGeometry width="50" height="50" relative="1" as="geometry">
            <mxPoint x="501.25" y="130" as="sourcePoint" />
            <mxPoint x="551.25" y="80" as="targetPoint" />
          </mxGeometry>
        </mxCell>
        <mxCell id="WWoUFIhhI0EZQM7on6L7-23" value="" style="endArrow=classic;html=1;fontSize=14;exitX=0.433;exitY=0.982;exitDx=0;exitDy=0;exitPerimeter=0;entryX=0.452;entryY=-0.01;entryDx=0;entryDy=0;entryPerimeter=0;" parent="1" edge="1">
          <mxGeometry width="50" height="50" relative="1" as="geometry">
            <mxPoint x="509.9975" y="199.43999999999988" as="sourcePoint" />
            <mxPoint x="511.06" y="239.99999999999994" as="targetPoint" />
          </mxGeometry>
        </mxCell>
        <mxCell id="WWoUFIhhI0EZQM7on6L7-24" value="" style="endArrow=classic;html=1;fontSize=14;exitX=0.433;exitY=0.982;exitDx=0;exitDy=0;exitPerimeter=0;entryX=0.452;entryY=-0.01;entryDx=0;entryDy=0;entryPerimeter=0;" parent="1" edge="1">
          <mxGeometry width="50" height="50" relative="1" as="geometry">
            <mxPoint x="509.9975" y="309.4399999999999" as="sourcePoint" />
            <mxPoint x="511.06" y="349.99999999999994" as="targetPoint" />
          </mxGeometry>
        </mxCell>
        <mxCell id="WWoUFIhhI0EZQM7on6L7-27" value="" style="endArrow=classic;html=1;fontSize=14;exitX=0.44;exitY=1.077;exitDx=0;exitDy=0;exitPerimeter=0;entryX=0.437;entryY=0.023;entryDx=0;entryDy=0;entryPerimeter=0;" parent="1" source="WWoUFIhhI0EZQM7on6L7-13" target="WWoUFIhhI0EZQM7on6L7-7" edge="1">
          <mxGeometry width="50" height="50" relative="1" as="geometry">
            <mxPoint x="550" y="330" as="sourcePoint" />
            <mxPoint x="600" y="280" as="targetPoint" />
          </mxGeometry>
        </mxCell>
        <mxCell id="WWoUFIhhI0EZQM7on6L7-28" value="3 of existing 6 major GDP datasets - with the highest resolution&amp;nbsp;" style="shape=note;whiteSpace=wrap;html=1;backgroundOutline=1;darkOpacity=0.05;rounded=1;fontSize=14;" parent="1" vertex="1">
          <mxGeometry x="150" y="400" width="140" height="110" as="geometry" />
        </mxCell>
        <mxCell id="WWoUFIhhI0EZQM7on6L7-29" value="2005 AD" style="shape=ext;double=1;rounded=1;whiteSpace=wrap;html=1;fontSize=14;arcSize=50;rotation=-45;" parent="1" vertex="1">
          <mxGeometry x="290" y="90" width="80" height="40" as="geometry" />
        </mxCell>
        <mxCell id="WWoUFIhhI0EZQM7on6L7-31" value="2015 AD" style="shape=ext;double=1;rounded=1;whiteSpace=wrap;html=1;fontSize=14;arcSize=50;rotation=-45;" parent="1" vertex="1">
          <mxGeometry x="320" y="145" width="80" height="40" as="geometry" />
        </mxCell>
      </root>
    </mxGraphModel>
  </diagram>
  <diagram id="pu7a8AFAolP5ao1E8kLH" name="Page-2">
    <mxGraphModel dx="1006" dy="685" grid="1" gridSize="10" guides="1" tooltips="1" connect="1" arrows="1" fold="1" page="1" pageScale="1" pageWidth="850" pageHeight="1100" math="0" shadow="0">
      <root>
        <mxCell id="2aHEs58ar22vkYpDAzWs-0" />
        <mxCell id="2aHEs58ar22vkYpDAzWs-1" parent="2aHEs58ar22vkYpDAzWs-0" />
      </root>
    </mxGraphModel>
  </diagram>
</mxfile>
